<?xml version="1.0" encoding="UTF-8"?>
<svg width="124px" height="110px" viewBox="0 0 124 110" version="1.1" xmlns="http://www.w3.org/2000/svg" xmlns:xlink="http://www.w3.org/1999/xlink">
    <!-- Generator: Sketch 52.6 (67491) - http://www.bohemiancoding.com/sketch -->
    <title>logo</title>
    <desc>Created with Sketch.</desc>
    <g id="Page-1" stroke="none" stroke-width="1" fill="none" fill-rule="evenodd">
        <g id="Desktop-HD" transform="translate(-919.000000, -73.000000)">
            <g id="logo" transform="translate(911.000000, 65.000000)">
                <g id="react-seeklogo.com">
                    <path d="M109.952888,43.6530567 C108.666541,43.2115992 107.333623,42.793909 105.961196,42.398886 C106.186771,41.48098 106.393804,40.5749577 106.577884,39.6843402 C109.599518,25.0601237 107.623868,13.278753 100.877612,9.3998244 C94.4087989,5.68044557 83.8295489,9.55849386 73.1450158,18.8295424 C72.1175718,19.7210402 71.0872583,20.6649143 70.0573871,21.6541225 C69.3711735,20.9996385 68.686064,20.3671615 68.0027204,19.762193 C56.8050171,9.84898433 45.5810482,5.67142275 38.841414,9.56157483 C32.3787812,13.291737 30.4649326,24.3673478 33.1848446,38.2268261 C33.4474994,39.5655032 33.7545186,40.9325691 34.1017085,42.3225222 C32.5131987,42.7721223 30.9796477,43.2514316 29.5123122,43.7613305 C16.3842066,48.3248923 8,55.4771206 8,62.8958519 C8,70.5579798 17.0004521,78.2432143 30.6743942,82.9031657 C31.7534862,83.2709005 32.8731903,83.6186087 34.0271057,83.9487114 C33.6525467,85.4520004 33.3267665,86.925139 33.0532964,88.3619668 C30.459856,101.98091 32.4851674,112.794859 38.9305842,116.501474 C45.5881112,120.329347 56.7613146,116.394741 67.6411831,106.912427 C68.5011021,106.162873 69.3641107,105.367986 70.2286641,104.534806 C71.3492516,105.610721 72.4680721,106.628978 73.5809344,107.584076 C84.1193521,116.626033 94.5277664,120.277191 100.967224,116.560233 C107.618129,112.721356 109.779624,101.104597 106.97341,86.9709135 C106.759093,85.8914771 106.509681,84.7887134 106.22959,83.666364 C107.014243,83.4350712 107.784551,83.1962971 108.535655,82.9480598 C122.75102,78.2520171 132,70.6603112 132,62.8958519 C132,55.4502724 123.345413,48.249849 109.952888,43.6530567 Z" id="Path" fill="#50B0C9"></path>
                    <path d="M107.237871,77.3664825 C106.562251,77.5892582 105.869035,77.804587 105.162624,78.0133438 C103.598932,73.0826958 101.488497,67.839679 98.9058746,62.4227349 C101.370395,57.1348123 103.399236,51.9588258 104.919163,47.0601593 C106.183094,47.4244433 107.409856,47.8086611 108.591972,48.2141268 C120.025622,52.1345057 127,57.9308483 127,62.3971054 C127,67.1544835 119.467884,73.3302246 107.237871,77.3664825 Z M102.163238,87.381991 C103.399676,93.6028575 103.576279,99.2272441 102.757264,103.624062 C102.021384,107.574889 100.541483,110.208993 98.7116771,111.263949 C94.8178402,113.508797 86.4909025,110.590801 77.5105556,102.893742 C76.4810696,102.011399 75.4441059,101.069255 74.4038433,100.072129 C77.885314,96.2796764 81.3648053,91.8708113 84.7607237,86.9743349 C90.7337653,86.4464193 96.3769152,85.5833528 101.494435,84.4050707 C101.746473,85.4177492 101.97036,86.4109325 102.163238,87.381991 Z M50.8450865,110.876007 C47.0407607,112.214198 44.0108037,112.252532 42.1792379,111.200642 C38.2818824,108.961709 36.661668,100.31922 38.871731,88.7260963 C39.1248689,87.39842 39.4261711,86.0346011 39.7734385,84.6405522 C44.8348764,85.7553091 50.436679,86.5574782 56.4240164,87.040927 C59.8428074,91.8322582 63.422806,96.2363043 67.0305156,100.092501 C66.2422914,100.850421 65.4571457,101.57198 64.6763992,102.251918 C59.8826145,106.425522 55.0787131,109.386671 50.8450865,110.876007 Z M33.0222887,77.3373483 C26.9975633,75.2863617 22.0221175,72.6207144 18.6116838,69.7119193 C15.5471981,67.0979682 14,64.5028556 14,62.3971054 C14,57.915953 20.7076039,52.2002214 31.8947145,48.315329 C33.2521142,47.8439284 34.6730731,47.3996904 36.1476948,46.9823958 C37.6937931,51.9916836 39.7219751,57.2290049 42.1695611,62.5250322 C39.6903054,67.8996989 37.6333128,73.22048 36.0720393,78.2884731 C35.0207803,77.9874954 34.0022908,77.670746 33.0222887,77.3373483 Z M38.9966505,36.8323886 C36.6746438,25.0127649 38.2167835,16.0964604 42.0974245,13.8590602 C46.2309835,11.4755522 55.3714379,14.8739294 65.0051929,23.3939684 C65.6209927,23.9385325 66.2392122,24.5085065 66.8591914,25.0981953 C63.269296,28.9375249 59.7220669,33.3084944 56.3336263,38.0715674 C50.5226711,38.6080265 44.9602357,39.4697783 39.8460149,40.6237457 C39.5244792,39.3354992 39.2396716,38.0698151 38.9966505,36.8323886 Z M92.2932794,49.9402589 C91.0706967,47.8369187 89.8155632,45.7833035 88.5360188,43.7857656 C92.4782401,44.2821381 96.2552938,44.9410474 99.8023036,45.7473789 C98.7374086,49.1466324 97.4101398,52.7007559 95.8477664,56.3442526 C94.7270104,54.2249218 93.5415947,52.0880666 92.2932794,49.9402589 Z M70.5590507,28.8553803 C72.993661,31.4824745 75.43179,34.4155847 77.8298922,37.5979764 C75.4133158,37.4842882 72.9668293,37.4251441 70.5001101,37.4251441 C68.0567026,37.4251441 65.6282506,37.4829739 63.2266297,37.5946906 C65.627151,34.4418709 68.0863931,31.5127036 70.5590507,28.8553803 Z M48.6856071,49.9766215 C47.4643433,52.0858761 46.3009208,54.2111215 45.1977587,56.34031 C43.6606773,52.709518 42.3457239,49.1391846 41.2715924,45.6917396 C44.7968287,44.905999 48.5560692,44.2635187 52.4732183,43.7765654 C51.1756393,45.7925037 49.9101698,47.8612336 48.6856071,49.9761834 L48.6856071,49.9766215 Z M52.5860417,81.3926635 C48.5389147,80.9429489 44.7231526,80.333546 41.198796,79.569491 C42.290082,76.0604925 43.634066,72.4139292 45.2036967,68.7049355 C46.3097179,70.8325904 47.477759,72.9587122 48.7065004,75.0725671 L48.7067202,75.0725671 C49.9583342,77.2260699 51.2550335,79.3355432 52.5860417,81.3926635 Z M70.7050836,96.3094674 C68.203395,93.6210385 65.7080845,90.647185 63.2710551,87.4483642 C65.6368274,87.5408041 68.0487848,87.5881199 70.5001101,87.5881199 C73.0185131,87.5881199 75.5081051,87.5316041 77.9585506,87.4229542 C75.5525305,90.679386 73.1231992,93.6578395 70.7050836,96.3094674 Z M95.8981302,68.5158934 C97.5495743,72.2649735 98.9417226,75.8924794 100.047084,79.3416769 C96.4646664,80.155675 92.5967813,80.811299 88.5215036,81.2984714 C89.8041277,79.2739896 91.0702565,77.1851068 92.3143925,75.0364229 C93.5730448,72.8625485 94.7681369,70.6853878 95.8981302,68.5158934 Z M87.7422958,72.4099861 C85.8108825,75.7454952 83.8280058,78.9296392 81.814999,81.9352564 C78.1485682,82.1963663 74.3607373,82.3308647 70.5001101,82.3308647 C66.6550977,82.3308647 62.9149906,82.2119189 59.3134393,81.9790664 C57.2192787,78.9340208 55.193296,75.7404574 53.2741985,72.4386818 L53.2746383,72.4386818 C51.3605992,69.1458879 49.5989708,65.825274 48.0027287,62.5232801 C49.5985309,59.2136188 51.3555409,55.8892812 53.2585835,52.6024014 L53.2581437,52.6030586 C55.1662445,49.3074168 57.1744131,46.1294061 59.2492198,43.1034177 C62.9237878,42.8267547 66.6918256,42.6823992 70.4998903,42.6823992 L70.5001101,42.6823992 C74.3253289,42.6823992 78.0982049,42.8278499 81.7716727,43.1069226 C83.8148101,46.1107867 85.8093433,49.2785019 87.7249219,52.5745818 C89.6622735,55.9076817 91.4419358,59.2098946 93.0513736,62.4485833 C91.4467746,65.7429104 89.6710707,69.0784201 87.7422958,72.4099861 Z M98.6307436,13.7026569 C102.768261,16.0791552 104.377259,25.6635693 101.777703,38.2316947 C101.611876,39.0336451 101.425157,39.8504911 101.222383,40.6782897 C96.0962855,39.5002265 90.5298914,38.6235793 84.7020029,38.0790152 C81.3069638,33.2635886 77.7887651,28.8858285 74.2573707,25.0957857 C75.206803,24.1860616 76.1549154,23.3186145 77.0990687,22.5000161 C86.2208296,14.5933235 94.7463638,11.4716092 98.6307436,13.7026569 Z" id="Shape" fill="#1B2129" fill-rule="nonzero"></path>
                </g>
                <g id="002-github-character" transform="translate(55.000000, 49.000000)" fill="#000000">
                    <path d="M27.5473231,7.40211543 C27.8718966,6.36630688 28.0343728,5.29255048 28.0343728,4.18044323 C28.0343728,2.69745447 27.7275435,1.30392862 27.1147058,0 C25.8289148,0 24.693097,0.249515546 23.7072524,0.747942159 C22.7219129,1.2465031 21.5981561,2.01990055 20.3365503,3.0681345 C18.7501815,2.65910363 17.0670091,2.4545882 15.2885484,2.4545882 C13.3412968,2.4545882 11.4842818,2.67844696 9.71756633,3.12582867 C8.43164907,2.05187078 7.29583127,1.26268971 6.31023922,0.757613825 C5.32464717,0.252537942 4.18289359,6.71643462e-05 2.88472589,6.71643462e-05 C2.2717619,1.30399578 1.96531147,2.6975888 1.96531147,4.1805104 C1.96531147,5.30558036 2.12747193,6.39223232 2.45204542,7.44033194 C0.81724323,9.47312804 0,12.0042164 0,15.0340672 C0,17.6934395 0.372438616,19.8089149 1.11775787,21.3815681 C1.51450793,22.2121896 2.03117337,22.9473034 2.66825936,23.5867079 C3.30509277,24.2257095 4.03228896,24.7438153 4.84965848,25.1402193 C5.6671543,25.5362202 6.49027016,25.8656614 7.31970069,26.127468 C8.14906806,26.3894089 9.06545145,26.5813646 10.0691034,26.7023276 C11.0726923,26.8242981 11.959081,26.9040893 12.7282697,26.9427088 C13.4974583,26.9805895 14.3506951,27 15.2884852,27 C16.3940558,27 17.3973289,26.970985 18.2991886,26.9138281 C19.2007325,26.8564026 20.2310955,26.7154918 21.3910984,26.4923047 C22.5509119,26.2684459 23.5726238,25.9645944 24.4562341,25.5812204 C25.339655,25.1978463 26.1872086,24.6479718 26.9984529,23.9322685 C27.8096972,23.2160951 28.4434996,22.3661303 28.9004915,21.3816353 C29.6332446,19.7963552 30,17.6804097 30,15.0341344 C29.999558,11.9914552 29.1822516,9.44753843 27.5473231,7.40211543 Z M25.3846154,21.3523516 C24.9999263,22.1899582 24.5130661,22.8477658 23.9242241,23.327655 C23.3351295,23.8071413 22.6020607,24.1905154 21.724765,24.4785161 C20.8470274,24.7660467 20.0061042,24.9545098 19.2007325,25.0437041 C18.3951082,25.1333013 17.5000053,25.1778985 16.5141606,25.1778985 L13.4852711,25.1778985 C12.4997422,25.1778985 11.604134,25.1333013 10.7989518,25.0437041 C9.99370639,24.9545098 9.15240431,24.7660467 8.27491922,24.4785161 C7.39774988,24.1905154 6.66468106,23.8071413 6.07558647,23.327655 C5.48649189,22.8476986 4.99975794,22.1899582 4.61513203,21.3523516 C4.23056927,20.5147451 4.03822474,19.5338098 4.03822474,18.4089413 C4.03822474,16.8744375 4.45290843,15.5703074 5.28233895,14.496954 C6.11170633,13.4229961 7.23539998,12.8862186 8.65354621,12.8862186 C9.17059053,12.8862186 10.342465,13.0203458 12.1693592,13.2888689 C13.0226591,13.4294439 13.9662587,13.4997649 14.999779,13.4997649 C16.033615,13.4997649 16.9770883,13.4296453 17.830262,13.2888689 C19.6815307,13.0202787 20.8530263,12.8862186 21.3461381,12.8862186 C22.7642211,12.8862186 23.8879148,13.4232647 24.7172822,14.496954 C25.5467127,15.5707775 25.9611438,16.8744375 25.9611438,18.4089413 C25.9611438,19.5340113 25.7687993,20.5154839 25.3846154,21.3523516 Z" id="Shape" fill-rule="nonzero"></path>
                    <path d="M10.9160236,14.6200713 C10.518853,14.2066692 10.0470503,14 9.50006841,14 C8.95294971,14 8.48107864,14.2069245 8.08397636,14.6200713 C7.6870793,15.0330266 7.40695288,15.4949516 7.24428118,16.0048249 C7.08126744,16.5157198 7,17.0138454 7,17.5002235 C7,17.9860907 7.08147266,18.4842802 7.24428118,18.9951112 C7.40674766,19.5053038 7.68673726,19.9669734 8.08397636,20.3798648 C8.48128386,20.793267 8.95294971,21 9.50006841,21 C10.0470503,21 10.5190582,20.7928839 10.9160236,20.3798648 C11.3130575,19.9669096 11.5930471,19.5053038 11.7557188,18.9951112 C11.9185273,18.4842802 12,17.9860907 12,17.5002235 C12,17.0142924 11.9187326,16.5157198 11.7557188,16.0048249 C11.5929787,15.4951432 11.3132627,15.0334096 10.9160236,14.6200713 Z" id="Path"></path>
                    <path d="M21.9159552,14.6200713 C21.5189214,14.2066692 21.0469819,14 20.5001368,14 C19.953497,14 19.4812839,14.2069245 19.0840448,14.6200713 C18.6870109,15.0330266 18.4070897,15.4949516 18.2446232,16.0048249 C18.0814727,16.5157198 18,17.0138454 18,17.5002235 C18,17.9860907 18.0814727,18.4842802 18.2446232,18.9951112 C18.4070897,19.5053038 18.6870793,19.9669734 19.0840448,20.3798648 C19.4813523,20.793267 19.953497,21 20.5001368,21 C21.0469819,21 21.5189898,20.7928839 21.9159552,20.3798648 C22.3127839,19.9669096 22.5929103,19.5053038 22.7558556,18.9951112 C22.9185957,18.4842802 23,17.9860907 23,17.5002235 C23,17.0142924 22.9185957,16.5157198 22.7558556,16.0048249 C22.5929787,15.4951432 22.3127839,15.0334096 21.9159552,14.6200713 Z" id="Path"></path>
                </g>
            </g>
        </g>
    </g>
</svg>